HIERARCHY
ROOT Hips
{
	OFFSET -3.958830 18.904000 13.208200
	CHANNELS 6 Xposition Yposition Zposition Zrotation Yrotation Xrotation 
	JOINT LHipJoint
	{
		OFFSET 0.000000 0.000000 0.000000
		CHANNELS 3 Zrotation Yrotation Xrotation
		JOINT LeftUpLeg
		{
			OFFSET 1.800000 -1.400000 0.085000
			CHANNELS 3 Zrotation Yrotation Xrotation
			JOINT LeftLeg
			{
				OFFSET 2.215000 -6.000000 0.000000
				CHANNELS 3 Zrotation Yrotation Xrotation
				JOINT LeftFoot
				{
					OFFSET 2.500000 -6.900000 0.000000
					CHANNELS 3 Zrotation Yrotation Xrotation
					JOINT LeftToeBase
					{
						OFFSET 0.200000 -0.500000 1.950000
						CHANNELS 3 Zrotation Yrotation Xrotation
						End Site
						{
							OFFSET 0.000000 0.000000 0.000000
						}
					}
				}
			}
		}
	}
	JOINT RHipJoint
	{
		OFFSET 0.000000 0.000000 0.000000
		CHANNELS 3 Zrotation Yrotation Xrotation
		JOINT RightUpLeg
		{
			OFFSET -1.800000 -1.400000 0.085000
			CHANNELS 3 Zrotation Yrotation Xrotation
			JOINT RightLeg
			{
				OFFSET -2.215000 -6.000000 0.000000
				CHANNELS 3 Zrotation Yrotation Xrotation
				JOINT RightFoot
				{
					OFFSET -2.500000 -6.900000 0.000000
					CHANNELS 3 Zrotation Yrotation Xrotation
					JOINT RightToeBase
					{
						OFFSET -0.200000 -0.500000 1.950000
						CHANNELS 3 Zrotation Yrotation Xrotation
						End Site
						{
							OFFSET 0.000000 0.000000 0.000000
						}
					}
				}
			}
		}
	}
	JOINT LowerBack
	{
		OFFSET 0.000000 0.000000 0.000000
		CHANNELS 3 Zrotation Yrotation Xrotation
		JOINT Spine
		{
			OFFSET -0.087000 1.940000 -0.288900
			CHANNELS 3 Zrotation Yrotation Xrotation
			JOINT Spine1
			{
				OFFSET 0.000000 1.950000 0.060000
				CHANNELS 3 Zrotation Yrotation Xrotation
				JOINT Neck
				{
					OFFSET 0.000000 0.000000 0.000000
					CHANNELS 3 Zrotation Yrotation Xrotation
					JOINT Neck1
					{
						OFFSET 0.000000 1.600000 0.340000
						CHANNELS 3 Zrotation Yrotation Xrotation
						JOINT Head
						{
							OFFSET 0.000000 1.667000 -0.240000
							CHANNELS 3 Zrotation Yrotation Xrotation
							End Site
							{
								OFFSET 0.000000 0.000000 0.000000
							}
						}
					}
				}
				JOINT LeftShoulder
				{
					OFFSET 0.000000 0.000000 0.000000
					CHANNELS 3 Zrotation Yrotation Xrotation
					JOINT LeftArm
					{
						OFFSET 2.700000 1.550000 -0.730000
						CHANNELS 3 Zrotation Yrotation Xrotation
						JOINT LeftForeArm
						{
							OFFSET 5.450000 0.000000 0.000000
							CHANNELS 3 Zrotation Yrotation Xrotation
							JOINT LeftHand
							{
								OFFSET 3.450000 0.000000 0.000000
								CHANNELS 3 Zrotation Yrotation Xrotation
								JOINT LeftHandIndex1
								{
									OFFSET 0.750000 0.000000 0.000000
									CHANNELS 3 Zrotation Yrotation Xrotation
									End Site
									{
										OFFSET 0.000000 0.000000 0.000000
									}
								}
							}
						}
					}
				}
				JOINT RightShoulder
				{
					OFFSET 0.000000 0.000000 0.000000
					CHANNELS 3 Zrotation Yrotation Xrotation
					JOINT RightArm
					{
						OFFSET -2.700000 1.550000 -0.730000
						CHANNELS 3 Zrotation Yrotation Xrotation
						JOINT RightForeArm
						{
							OFFSET -5.450000 0.000000 0.000000
							CHANNELS 3 Zrotation Yrotation Xrotation
							JOINT RightHand
							{
								OFFSET -3.450000 0.000000 0.000000
								CHANNELS 3 Zrotation Yrotation Xrotation
								JOINT RightHandIndex1
								{
									OFFSET -0.750000 0.000000 0.000000
									CHANNELS 3 Zrotation Yrotation Xrotation
									End Site
									{
										OFFSET 0.000000 0.000000 0.000000
									}
								}
							}
						}
					}
				}
			}
		}
	}
}
MOTION
Frames: 4
Frame Time: 0.016667
-1.287670 16.578230 -2.571150 -4.214088 -9.074507 -5.124906 -14.684919 13.009510 3.394066 5.582758 -3.407094 -22.194304 -6.087656 9.828028 36.292782 0.156517 6.587743 2.252057 0.417500 0.185600 0.208520 18.513404 -11.782656 2.866276 -4.368265 1.070224 -10.279661 6.130085 -5.298928 16.665080 -0.169975 -3.662038 3.262903 0.149900 0.036840 0.025930 -4.461130 0.361297 -7.826794 26.130081 -2.058744 16.842060 -13.835328 3.927820 7.162528 11.782862 -1.950309 -11.745717 -3.870964 -14.623433 32.099587 -1.287630 -17.614540 -12.100930 -30.416614 -11.700062 3.035595 -52.442265 -4.861977 -5.972346 -8.763488 -20.635154 -0.950496 -3.436986 3.086767 0.255930 -0.060390 -0.093470 0.187180 5.655762 19.028475 10.105910 -7.045412 8.802238 -5.667957 -22.651635 4.005015 -1.904321 2.653638 -1.542959 -0.052530 0.158630 -0.120480 -0.078380 
-1.287560 16.574700 -2.575650 -4.259181 -9.334369 -5.217121 -14.684666 13.035189 3.398346 5.598527 -3.368704 -22.071745 -6.197066 9.870286 36.229323 0.166268 6.582408 2.252887 0.426070 0.196440 0.216560 18.509985 -11.777480 2.867257 -4.171724 1.069786 -10.297634 5.880227 -5.243085 16.795597 -0.175094 -3.635189 3.271771 0.150490 0.024500 0.023870 -4.450442 0.307164 -7.833462 26.390615 -2.201523 17.077045 -13.924550 3.908239 7.217242 11.873709 -2.117777 -11.858798 -4.210067 -14.539041 32.364551 -1.249570 -17.620390 -12.449760 -30.449600 -11.876453 3.090677 -52.453001 -4.963438 -5.980959 -8.391566 -20.603736 -1.001796 -3.420838 3.087783 0.261650 -0.071860 -0.082460 0.189000 5.518949 19.417553 10.147181 -6.956124 8.808996 -6.088960 -23.932252 3.862157 -2.034598 2.668556 -1.564381 -0.046230 0.157270 -0.129140 -0.077890 
-1.287960 16.567720 -2.582180 -4.429802 -9.548863 -5.365203 -14.694065 13.081618 3.407011 5.727287 -3.327676 -21.940311 -6.347075 9.927543 36.184851 0.169331 6.591652 2.244232 0.437520 0.212620 0.227230 18.497898 -11.753336 2.867830 -3.722252 1.052626 -10.250805 5.466751 -5.163194 17.046045 -0.182502 -3.603997 3.279342 0.156640 0.007600 0.022290 -4.412775 0.186833 -7.845068 26.780022 -2.488332 17.415772 -13.805965 3.761898 7.298182 12.055951 -2.367939 -11.961040 -4.666502 -14.522235 32.540579 -1.452760 -17.612470 -13.039570 -30.588039 -12.088572 3.164871 -52.584929 -5.068474 -6.043364 -8.270501 -20.819500 -1.033185 -3.401792 3.089664 0.270870 -0.084650 -0.068500 0.188310 5.326461 19.943668 10.128773 -7.106405 8.768209 -6.764769 -25.866166 3.913836 -2.276138 2.677717 -1.597236 -0.041350 0.156780 -0.136980 -0.079890 
-1.291860 16.557420 -2.588490 -4.482137 -9.729690 -5.605951 -14.717485 13.136870 3.422582 5.817410 -3.300230 -21.717328 -6.589067 10.054016 36.227304 0.172039 6.636784 2.222001 0.453930 0.233390 0.244680 18.471839 -11.718726 2.862601 -3.318969 1.014171 -10.161079 5.018683 -5.072833 17.281896 -0.189444 -3.571988 3.286890 0.169110 -0.009820 0.019210 -4.335729 0.033025 -7.867246 26.754139 -2.740376 17.810647 -13.308979 3.535532 7.527350 12.307460 -2.572026 -12.071552 -4.996732 -14.416158 32.691391 -1.733560 -17.462930 -13.763060 -30.696531 -12.373752 3.276100 -52.933681 -5.254138 -6.144686 -7.936785 -21.120086 -1.121543 -3.386434 3.086487 0.282440 -0.096630 -0.054740 0.186050 5.027730 20.587402 10.040572 -7.160768 9.024210 -7.605467 -28.126192 3.659021 -2.563010 2.688668 -1.634440 -0.039960 0.161090 -0.144690 -0.086060 
